<svg width="13" height="13" viewBox="0 0 13 13" fill="none" xmlns="http://www.w3.org/2000/svg">
<g clip-path="url(#clip0)">
<path d="M0.207803 7.00527L4.90256 11.7001C5.03657 11.8342 5.21519 11.9077 5.40564 11.9077C5.5963 11.9077 5.77482 11.834 5.90883 11.7001L6.33508 11.2738C6.46899 11.14 6.54276 10.9613 6.54276 10.7707C6.54276 10.5802 6.46899 10.3955 6.33508 10.2617L3.59623 7.51681L12.2977 7.51682C12.69 7.51682 13 7.20968 13 6.81725L13 6.2145C13 5.82207 12.69 5.48397 12.2977 5.48397L3.56515 5.48397L6.33497 2.72376C6.46888 2.58975 6.54265 2.41589 6.54265 2.22533C6.54265 2.03498 6.46888 1.85858 6.33497 1.72467L5.90873 1.29969C5.77471 1.16568 5.5962 1.09265 5.40554 1.09265C5.21508 1.09265 5.03647 1.16663 4.90245 1.30064L0.207697 5.9954C0.0733657 6.12984 -0.000511634 6.3093 1.76389e-05 6.50007C-0.000405809 6.69148 0.0733657 6.87105 0.207803 7.00527Z" fill="#717171"/>
</g>
<defs>
<clipPath id="clip0">
<rect width="13" height="13" fill="white" transform="translate(13 13) rotate(-180)"/>
</clipPath>
</defs>
</svg>
