<svg width="29" height="35" viewBox="0 0 29 35" fill="none" xmlns="http://www.w3.org/2000/svg">
<path d="M28.9674 33.5381L26.8377 9.81987C26.7795 9.17214 26.2367 8.67601 25.5864 8.67601H21.1944V6.69515C21.1944 3.00345 18.1911 0 14.4996 0C10.8082 0 7.8053 3.00345 7.8053 6.69515V8.67601H3.41026C2.76002 8.67601 2.21715 9.17214 2.15903 9.81987L0.0208923 33.6314C-0.0105977 33.9828 0.106987 34.331 0.345005 34.5913C0.583023 34.8516 0.919531 34.9998 1.27212 34.9998H27.7248C27.7258 34.9998 27.7271 34.9998 27.7281 34.9998C28.4221 34.9998 28.9844 34.4374 28.9844 33.7436C28.9842 33.6737 28.9785 33.6049 28.9674 33.5381ZM10.3178 6.69515C10.3178 4.38884 12.1938 2.5125 14.4998 2.5125C16.8059 2.5125 18.6821 4.38884 18.6821 6.69515V8.67601H10.3178V6.69515ZM2.64629 32.4875L4.55881 11.1885H7.8053V13.435C7.8053 14.1288 8.36759 14.6913 9.06155 14.6913C9.7555 14.6913 10.3178 14.1288 10.3178 13.435V11.1885H18.6821V13.435C18.6821 14.1288 19.2444 14.6913 19.9383 14.6913C20.6323 14.6913 21.1946 14.1288 21.1946 13.435V11.1885H24.4381L26.3506 32.4875H2.64629Z" fill="white"/>
</svg>
