<?xml version="1.0" encoding="UTF-8"?>
<svg id="Layer_1" data-name="Layer 1" xmlns="http://www.w3.org/2000/svg" viewBox="0 0 160 117.63">
  <defs>
    <style>
      .cls-1 {
        fill: #fff;
      }
    </style>
  </defs>
  <path class="cls-1" d="m116.05,59.91c-.32,11.97-.12,23.96,0,35.94v20.52h-11.72v-41.09c0-6.74.01-13.47.04-20.21,0-.28,0-.55-.03-.8-.11-2.06-.74-3.71-2.53-5.18-14.07-11.62-28.04-23.36-42.24-35.22-4.88,4.01-9.68,7.91-14.43,11.86-9.43,7.87-18.86,15.73-28.2,23.7-1,.84-1.99,2.37-2.01,3.58-.12,16.47-.08,32.93-.07,49.4,0,.55.16,1.1.28,1.95,9.82,0,19.26.08,28.71-.05,2.54-.04,3.45.71,4.08,3.28.75,3.05,2.54,5.83,3.87,8.72-12.9,0-26.46.16-40.01-.08-5.71-.09-8.92-4-8.92-9.71-.01-18.66.07-37.32-.08-55.97-.03-3.57,1.28-6.13,3.89-8.31C22.2,29.36,37.69,16.42,53.2,3.53c4.03-3.34,8.73-3.17,12.79.21,14.26,11.88,28.41,23.88,42.87,35.49,5.3,4.25,7.61,8.87,7.34,15.86-.07,1.61-.12,3.21-.16,4.82Z"/>
  <path class="cls-1" d="m152.06,41.34c-2.9-2.42-5.82-4.84-8.72-7.26-6.42-5.23-12.8-10.53-19.17-15.84-3.12-2.6-6.23-5.2-9.34-7.81-2.62-2.18-5.23-4.36-7.84-6.54-2.02-1.69-4.2-2.58-6.37-2.64h-.21c-2.18.05-4.36.95-6.39,2.64-12.09,10.09-24.13,20.25-36.34,30.19-2.89,2.42-5.79,4.83-8.68,7.22-3.38,3.37-5.06,7.12-5.19,12.17.01.58.01,1.15.01,1.73.01.01.01.03,0,.04.11,17.14.04,34.28.05,51.43,0,5.71,3.21,9.62,8.92,9.71,12.04.21,24.09.11,35.68.09,8.55.07,17.04.03,25.32,0h2.19c10.51.04,21.38.09,32.24-.09,5.71-.09,8.92-4,8.94-9.71,0-17.15-.05-34.3.04-51.43v-.27c0-.48,0-.95.01-1.43-.11-5.07-1.77-8.83-5.15-12.2Zm-6.92,61.22c0,.55-.15,1.1-.28,1.95-9.82,0-19.26.08-28.69-.05-.48-.01-.91.01-1.28.08-.37-.07-.8-.09-1.28-.08-9.1.13-18.19.05-27.62.05h-1.08s0-.04-.01-.05h-.03c-4.08.07-8.15.08-12.25.08-5.4,0-10.88-.03-16.45-.03-.13-.86-.28-1.4-.28-1.95-.01-16.47-.07-32.93.07-49.4.01-1.22,1-2.74,1.99-3.58,2.01-1.71,4.03-3.42,6.05-5.14,7.36-6.22,14.77-12.4,22.16-18.57,2.69-2.23,5.38-4.45,8.11-6.69,2.06-1.73,4.12-3.45,6.19-5.18.03.01.04.04.07.05.03-.01.04-.04.07-.05,1.66,1.39,3.33,2.77,4.98,4.16.52.43,1.03.87,1.55,1.3.21.17.41.35.62.49,2.41,1.97,4.8,3.93,7.17,5.91,7.4,6.17,14.81,12.35,22.15,18.57,2.02,1.71,4.04,3.42,6.05,5.14.99.84,1.99,2.37,1.99,3.58.13,16.47.09,32.93.07,49.4Z"/>
</svg>