<?xml version="1.0" encoding="UTF-8"?>
<svg id="Layer_1" data-name="Layer 1" xmlns="http://www.w3.org/2000/svg" viewBox="0 0 250 45.39">
  <defs>
    <style>
      .cls-1 {
        fill: #fff;
      }
    </style>
  </defs>
  <path class="cls-1" d="m47.43,38.28c0,.15,0,.29-.02.41v-1.86c0,.49.01.97.02,1.45Z"/>
  <g>
    <path class="cls-1" d="m173.78,43.25h-6.34c0-.53,0-.99,0-1.46,0-3.88.05-7.75-.02-11.62-.04-2.12-.44-4.17-2.74-5.1-3.47-1.4-8.23,1.75-8.25,5.46-.02,4.18,0,8.36,0,12.66h-6.39V9.17c1.91,0,3.76-.06,5.58.06.3.02.77.86.77,1.33.07,3.7.04,7.4.04,11.1,0,.21.03.42.05.73,1.11-.83,2.06-1.72,3.16-2.34,6.28-3.56,13.34-.05,13.94,7.15.41,4.98.21,10.02.28,15.03,0,.3-.05.6-.09,1.05Z"/>
    <path class="cls-1" d="m88.63,22.29v-2.79h6.12v23.74h-5.99c-.06-.88-.12-1.77-.19-2.85-.78.67-1.4,1.25-2.08,1.77-2.99,2.27-7.52,2.41-10.76.5-3.13-1.84-4.93-4.6-5.7-8.03-1.19-5.33.04-10,4.21-13.69,3.85-3.41,10.37-3.05,13.6.61.17.19.38.35.79.74Zm-.21,9.02s-.02,0-.02,0c0-.92.05-1.85-.02-2.77-.03-.45-.16-.98-.43-1.33-1.7-2.24-5.71-3.16-8.26-1.95-2.55,1.21-4.05,4.09-3.63,7.01.4,2.81,2.63,5.25,5.34,5.64,2.16.32,4.01-.54,5.76-1.77,1.5-1.06,1.28-2.55,1.27-4.03,0-.26,0-.53,0-.79Z"/>
    <path class="cls-1" d="m185.27,19.46c0,4.7-.02,9.19.02,13.67,0,.77.11,1.6.42,2.29.96,2.18,3.46,3.08,5.92,2.11,2.47-.97,4.98-3.12,4.68-6.53-.29-3.37-.02-6.78-.09-10.17-.02-1.12.35-1.47,1.44-1.39,1.14.08,2.3.09,3.43,0,1.18-.1,1.51.36,1.5,1.5-.05,6.56-.04,13.13-.04,19.69q0,2.7-2.65,2.7c-1.09,0-2.17,0-3.41,0v-3.45c-1.14.91-2.04,1.81-3.09,2.43-3.84,2.27-7.69,2.29-11.31-.45-2.01-1.53-3.12-3.78-3.21-6.26-.17-5.02-.12-10.04-.1-15.06,0-.36.49-1.01.77-1.03,1.84-.09,3.68-.05,5.71-.05Z"/>
    <path class="cls-1" d="m114.84,25.01h-5.77c0,1.72,0,3.3,0,4.87,0,4.05-.03,8.11.02,12.16.01.98-.29,1.32-1.28,1.29-1.71-.07-3.43-.02-5.26-.02v-18.28c-1.03,0-1.99-.05-2.94.01-.9.06-1.18-.34-1.15-1.16.03-1.1.04-2.2,0-3.3-.04-.84.25-1.15,1.12-1.18,2.94-.09,2.94-.12,3.05-3.09.2-5.01,2.53-8.18,7.15-8.85,2.32-.34,4.77.19,7.16.41.24.02.66.64.61.92-.26,1.67-.62,3.32-.97,5.08-2.39-.55-4.83-1.64-6.78.64-1.2,1.4-.71,3.14-.7,4.91h5.75v5.59Z"/>
    <path class="cls-1" d="m226.45,42.43c.4-2.21.73-4.05,1.04-5.72,2.49.66,4.87,1.45,7.31,1.86,1.16.19,2.52-.16,3.64-.63,1.2-.5,1.29-1.78.23-2.54-.94-.68-2.06-1.12-3.14-1.58-1.73-.74-3.55-1.3-5.22-2.15-2.75-1.4-4.06-3.7-3.6-6.82.4-2.7,2.14-4.42,4.54-5.37,4.37-1.73,8.7-1.03,12.94.63.23.09.55.44.52.62-.28,1.71-.63,3.41-.94,5.01-1.97-.56-3.82-1.26-5.74-1.58-1.29-.22-2.73-.13-3.99.23-1.45.42-1.58,1.68-.36,2.56.73.53,1.64.81,2.48,1.18,2.3,1.02,4.76,1.79,6.88,3.1,3.72,2.29,3.44,8.66-.58,11.04-2.81,1.66-5.75,2.2-8.92,1.59-2.33-.45-4.66-.94-7.1-1.43Z"/>
    <path class="cls-1" d="m210.06,12.37h6.42c0,2.02.04,3.94-.02,5.87-.03.94.33,1.23,1.24,1.2,1.72-.05,3.43,0,5.15-.03.76-.02,1.02.28,1,1.01-.03,1.19.06,2.38-.04,3.56-.03.37-.52.99-.83,1.01-2.1.09-4.2.05-6.51.05,0,.95,0,2.03,0,3.11,0,2.11-.02,4.23.02,6.34.04,2.35,1.52,3.56,3.83,3.1.97-.19,1.92-.51,2.88-.78.3,1.64.64,3.21.83,4.8.05.39-.27,1.1-.59,1.22-3.51,1.32-6.99,1.6-10.28-.66-1.84-1.26-2.72-3.11-2.84-5.23-.19-3.47-.18-6.94-.27-10.41-.01-.43-.05-.86-.08-1.48-1.01,0-1.97.06-2.91-.03-.35-.04-.94-.43-.96-.69-.09-1.57-.04-3.15-.04-4.91.98,0,1.85-.04,2.72.01.95.06,1.34-.25,1.3-1.27-.07-1.89-.02-3.78-.02-5.79Z"/>
    <path class="cls-1" d="m118.12,19.44c1.83,0,3.54-.04,5.25.04.28.01.74.53.78.85.11.9.04,1.82.18,2.87,2.78-3.73,6.11-5.68,10.9-3.93-.36,2.04-.72,4.02-1.07,6.01-4.67-.9-7.38.17-9.18,3.58-.31.59-.49,1.32-.5,1.99-.05,3.74-.05,7.48,0,11.22.01,1-.3,1.31-1.28,1.26-1.66-.07-3.33-.02-5.08-.02v-23.88Z"/>
    <path class="cls-1" d="m144.5,43.26h-6.28v-23.72h6.28v23.72Z"/>
    <path class="cls-1" d="m141.3,15.31c-2.21,0-3.99-1.65-3.97-3.68.03-2.53,1.61-4.14,4.04-4.13,2.25.01,3.93,1.67,3.94,3.87,0,2.26-1.7,3.94-4.01,3.94Z"/>
  </g>
  <path class="cls-1" d="m47.41,23.08c-.12,4.58-.05,9.16,0,13.75v7.85h-4.48v-15.72c0-2.58,0-5.15.02-7.73,0-.11,0-.21-.01-.31-.04-.79-.28-1.42-.97-1.98-5.38-4.45-10.72-8.93-16.16-13.47-1.87,1.53-3.7,3.02-5.52,4.54-3.61,3.01-7.21,6.02-10.79,9.07-.38.32-.76.91-.77,1.37-.05,6.3-.03,12.6-.03,18.9,0,.21.06.42.11.75,3.76,0,7.37.03,10.98-.02.97-.02,1.32.27,1.56,1.25.29,1.17.97,2.23,1.48,3.34-4.93,0-10.12.06-15.3-.03-2.18-.04-3.41-1.53-3.41-3.71,0-7.14.03-14.28-.03-21.41-.01-1.37.49-2.34,1.49-3.18C11.51,11.39,17.44,6.44,23.37,1.51c1.54-1.28,3.34-1.21,4.89.08,5.45,4.54,10.87,9.13,16.4,13.57,2.03,1.63,2.91,3.39,2.81,6.07-.03.61-.05,1.23-.06,1.84Z"/>
  <path class="cls-1" d="m42.93,20.92c.01.1.01.2.01.31-.01,2.58-.02,5.15-.02,7.73v-8.04h0Z"/>
  <path class="cls-1" d="m47.41,23.08v13.75c-.05-4.58-.12-9.17,0-13.75Z"/>
  <path class="cls-1" d="m61.26,15.92c-1.11-.93-2.23-1.85-3.34-2.78-2.46-2-4.9-4.03-7.33-6.06-1.19-.99-2.38-1.99-3.57-2.99-1-.83-2-1.67-3-2.5-.77-.64-1.61-.99-2.44-1.01h-.08c-.83.02-1.67.36-2.45,1.01-4.63,3.86-9.23,7.75-13.9,11.55-1.11.93-2.22,1.85-3.32,2.76-1.29,1.29-1.93,2.72-1.99,4.66,0,.22,0,.44,0,.66,0,0,0,.01,0,.02.04,6.55.02,13.11.02,19.67,0,2.18,1.23,3.68,3.41,3.71,4.6.08,9.22.04,13.65.04,3.27.03,6.52.01,9.69,0h.84c4.02.02,8.18.04,12.33-.04,2.18-.04,3.41-1.53,3.42-3.71,0-6.56-.02-13.12.02-19.67v-.1c0-.18,0-.36,0-.55-.04-1.94-.68-3.38-1.97-4.67Zm-2.65,23.42c0,.21-.06.42-.11.75-3.76,0-7.37.03-10.98-.02-.18,0-.35,0-.49.03-.14-.03-.31-.04-.49-.03-3.48.05-6.96.02-10.57.02h-.41s0-.02,0-.02h-.01c-1.56.03-3.12.03-4.69.03-2.07,0-4.16-.01-6.29-.01-.05-.33-.11-.54-.11-.75,0-6.3-.03-12.6.03-18.9,0-.47.38-1.05.76-1.37.77-.65,1.54-1.31,2.31-1.96,2.81-2.38,5.65-4.74,8.48-7.1,1.03-.85,2.06-1.7,3.1-2.56.79-.66,1.58-1.32,2.37-1.98.01,0,.02.02.03.02.01,0,.02-.02.03-.02.63.53,1.27,1.06,1.9,1.59.2.16.39.33.59.5.08.07.16.13.24.19.92.75,1.84,1.5,2.74,2.26,2.83,2.36,5.66,4.72,8.47,7.1.77.65,1.55,1.31,2.31,1.96.38.32.76.91.76,1.37.05,6.3.04,12.6.03,18.9Z"/>
</svg>