<svg width="213" height="57" viewBox="0 0 213 57" fill="none" xmlns="http://www.w3.org/2000/svg">
<g id="afrihuts-03 1" clip-path="url(#clip0_4_156)">
<path id="Vector" d="M37.9997 33.4607C37.9997 33.5927 37.9997 33.7146 37.9895 33.8263V32.171C37.9895 32.5975 37.9895 33.0342 37.9997 33.4607Z" fill="#0558D4"/>
<path id="Vector_2" d="M50.1277 13.6077C49.1546 12.7851 48.1715 11.9626 47.1985 11.14C45.0417 9.3629 42.905 7.56547 40.7682 5.75788C39.725 4.87439 38.6817 3.99091 37.6384 3.10742C36.7556 2.36611 35.8829 1.62479 35.0101 0.883477C34.328 0.314798 33.6057 0.0101476 32.8734 -0.0101624H32.8032C32.0709 0.0101476 31.3386 0.314798 30.6564 0.883477C26.6037 4.30571 22.561 7.75841 18.4681 11.1299C17.495 11.9524 16.522 12.7648 15.5589 13.5772C14.4254 14.7247 13.8636 15.9941 13.8135 17.7103C13.8135 17.9033 13.8135 18.0962 13.8135 18.2993C13.8135 18.2993 13.8135 18.2993 13.8135 18.3095C13.8536 24.1283 13.8235 29.9471 13.8335 35.776C13.8335 37.7156 14.9069 39.046 16.8229 39.0764C20.8556 39.1475 24.8983 39.117 28.7906 39.1069C31.6596 39.1272 34.5085 39.1069 37.2873 39.1069H38.0196C41.5507 39.117 45.1922 39.1373 48.8336 39.0764C50.7496 39.046 51.823 37.7156 51.833 35.776C51.833 29.9572 51.813 24.1283 51.8431 18.3095V18.2181C51.8431 18.0556 51.8431 17.8931 51.8431 17.7306C51.8029 16.0144 51.2512 14.7349 50.1176 13.5874L50.1277 13.6077ZM47.8104 34.395C47.8104 34.5778 47.7602 34.7707 47.7201 35.055C44.4298 35.055 41.2598 35.0855 38.0998 35.0347C37.9393 35.0347 37.7989 35.0347 37.6685 35.0652C37.5381 35.0449 37.3976 35.0347 37.2371 35.0347C34.1875 35.0754 31.1379 35.055 27.968 35.055H27.6068C27.6068 35.055 27.6068 35.0449 27.6068 35.0347C26.2425 35.055 24.8783 35.0652 23.4939 35.0652C21.6782 35.0652 19.8424 35.0652 17.9765 35.0652C17.9364 34.7707 17.8863 34.5879 17.8863 34.4051C17.8863 28.8097 17.8662 23.2245 17.9063 17.6291C17.9063 17.2127 18.2474 16.6948 18.5784 16.4105C19.2506 15.8316 19.9327 15.2528 20.6048 14.6638C23.0726 12.5516 25.5604 10.4495 28.0382 8.35756C28.941 7.59593 29.8439 6.84446 30.7567 6.08284C31.4489 5.49385 32.1411 4.91501 32.8333 4.32602C32.8333 4.32602 32.8433 4.33618 32.8533 4.34633C32.8533 4.34633 32.8634 4.33618 32.8734 4.32602C33.4251 4.80331 33.9869 5.27044 34.5386 5.73757C34.7092 5.87974 34.8797 6.03206 35.0603 6.17423C35.1305 6.23516 35.2007 6.29609 35.2709 6.34687C36.0835 7.0171 36.886 7.67717 37.6785 8.35756C40.1563 10.4495 42.6441 12.5516 45.1119 14.6638C45.794 15.2426 46.4662 15.8215 47.1383 16.4105C47.4693 16.6948 47.8104 17.2127 47.8104 17.6291C47.8505 23.2245 47.8405 28.8097 47.8305 34.4051L47.8104 34.395Z" fill="#0558D4"/>
<path id="Vector_3" d="M17.2342 57H16.8731C16.8731 57 16.8731 56.9898 16.8731 56.9797C17.0135 56.9797 17.1339 56.9797 17.2442 57H17.2342Z" fill="#0558D4"/>
<path id="Vector_4" d="M149.972 36.3244H144.414C144.414 35.8573 144.414 35.4409 144.414 35.0347C144.414 31.5922 144.454 28.1598 144.394 24.7173C144.354 22.8386 144.003 21.0208 141.987 20.1881C138.947 18.9391 134.774 21.7418 134.754 25.0321C134.734 28.7386 134.754 32.4554 134.754 36.2736H129.146V6.06253C130.822 6.06253 132.437 6.01175 134.042 6.1133C134.302 6.13361 134.714 6.87493 134.724 7.29128C134.784 10.5713 134.754 13.8514 134.764 17.1416C134.764 17.3244 134.784 17.5174 134.804 17.7916C135.777 17.0502 136.61 16.2683 137.573 15.7098C143.08 12.5516 149.27 15.659 149.801 22.0566C150.162 26.4741 149.992 30.9423 150.052 35.3902C150.052 35.6542 150.012 35.9284 149.972 36.3244Z" fill="#0558D4"/>
<path id="Vector_5" d="M75.3069 17.7103V15.2325H80.6738V36.3041H75.4172C75.3671 35.5222 75.3169 34.7402 75.2567 33.7755C74.5746 34.3645 74.0329 34.8926 73.441 35.3495C70.8127 37.3704 66.8503 37.4922 64.0013 35.7964C61.2527 34.1614 59.6777 31.714 59.0056 28.6675C57.9623 23.9353 59.0357 19.7921 62.6972 16.512C66.0778 13.4858 71.7858 13.8108 74.6147 17.0502C74.7652 17.2229 74.9457 17.365 75.3069 17.7001V17.7103ZM75.1263 25.7124C75.1263 25.7124 75.1163 25.7124 75.1063 25.7124C75.1063 24.8899 75.1464 24.0673 75.0862 23.2549C75.0561 22.8487 74.9457 22.3918 74.715 22.077C73.2203 20.0866 69.7093 19.2742 67.4722 20.3404C65.2352 21.4169 63.9211 23.9759 64.2822 26.5553C64.6333 29.0433 66.5895 31.2164 68.9669 31.5617C70.8629 31.8461 72.488 31.0844 74.0228 29.9877C75.337 29.0534 75.1363 27.7231 75.1363 26.4131C75.1363 26.1796 75.1363 25.946 75.1363 25.7124H75.1263Z" fill="#0558D4"/>
<path id="Vector_6" d="M160.043 15.202C160.043 19.3757 160.023 23.3565 160.063 27.3373C160.063 28.0176 160.164 28.759 160.435 29.3683C161.277 31.2977 163.464 32.1 165.631 31.2368C167.798 30.3736 169.995 28.4645 169.734 25.4383C169.483 22.4527 169.714 19.4164 169.654 16.4105C169.634 15.4153 169.965 15.1005 170.918 15.1716C171.921 15.2427 172.934 15.2528 173.927 15.1716C174.96 15.0903 175.251 15.4864 175.241 16.5019C175.201 22.3308 175.211 28.1497 175.201 33.9786C175.201 35.5763 174.425 36.3752 172.874 36.3752C171.921 36.3752 170.968 36.3752 169.884 36.3752V33.3186C168.881 34.131 168.099 34.923 167.176 35.4816C163.805 37.4923 160.435 37.5227 157.265 35.0855C155.499 33.7248 154.526 31.7344 154.446 29.5307C154.295 25.0828 154.346 20.6147 154.366 16.1668C154.366 15.852 154.787 15.263 155.038 15.2528C156.643 15.1716 158.268 15.2122 160.053 15.2122L160.043 15.202Z" fill="#0558D4"/>
<path id="Vector_7" d="M98.2892 20.1272H93.2333C93.2333 21.6504 93.2333 23.0518 93.2333 24.4532C93.2333 28.0481 93.2132 31.6531 93.2533 35.248C93.2533 36.1213 92.9925 36.426 92.1298 36.3854C90.6251 36.3244 89.1203 36.365 87.5153 36.365V20.1475C86.6124 20.1475 85.7698 20.1069 84.9372 20.1577C84.1547 20.2084 83.9039 19.853 83.924 19.1219C83.9541 18.147 83.9641 17.1619 83.924 16.1871C83.8939 15.4457 84.1447 15.1614 84.9071 15.1411C87.4852 15.0599 87.4852 15.0395 87.5855 12.3992C87.756 7.95136 89.8025 5.13842 93.8552 4.54943C95.8916 4.25494 98.0384 4.72207 100.135 4.91501C100.346 4.93532 100.707 5.48369 100.677 5.72741C100.456 7.21004 100.135 8.67236 99.824 10.2362C97.7274 9.74879 95.5907 8.78407 93.8853 10.8049C92.832 12.054 93.2634 13.5975 93.2734 15.1614H98.3092V20.1272H98.2892Z" fill="#0558D4"/>
<path id="Vector_8" d="M196.147 35.5831C196.498 33.6232 196.789 31.9882 197.06 30.5056C199.247 31.0946 201.333 31.7953 203.47 32.1507C204.483 32.3234 205.677 32.0086 206.66 31.5922C207.713 31.1454 207.794 30.008 206.861 29.3378C206.038 28.7386 205.055 28.3426 204.112 27.9364C202.597 27.2763 201.002 26.7889 199.538 26.0273C197.13 24.7883 195.976 22.7472 196.378 19.9749C196.729 17.5783 198.254 16.055 200.36 15.2122C204.192 13.6788 207.994 14.2982 211.706 15.7707C211.907 15.8519 212.187 16.1668 212.167 16.3292C211.917 17.8525 211.616 19.3554 211.345 20.7771C209.619 20.2795 207.994 19.6601 206.309 19.3757C205.175 19.1828 203.911 19.264 202.818 19.5788C201.544 19.9444 201.434 21.0716 202.507 21.8536C203.149 22.3207 203.942 22.5746 204.684 22.8995C206.7 23.8033 208.857 24.4837 210.723 25.6515C213.983 27.6825 213.742 33.3389 210.211 35.4511C207.743 36.9236 205.175 37.4009 202.397 36.8626C200.35 36.4666 198.314 36.0299 196.167 35.5933L196.147 35.5831Z" fill="#0558D4"/>
<path id="Vector_9" d="M181.782 8.9161H187.41C187.41 10.7034 187.44 12.4196 187.399 14.1256C187.379 14.9583 187.69 15.2122 188.483 15.1919C189.988 15.1411 191.492 15.1919 192.997 15.1614C193.659 15.1411 193.89 15.4153 193.88 16.0551C193.85 17.1112 193.93 18.1673 193.84 19.2133C193.81 19.5484 193.378 20.0968 193.117 20.1069C191.282 20.1881 189.436 20.1475 187.41 20.1475C187.41 20.9904 187.41 21.945 187.41 22.9097C187.41 24.7884 187.399 26.6569 187.42 28.5356C187.45 30.6173 188.754 31.6938 190.78 31.2876C191.633 31.1149 192.465 30.8306 193.308 30.597C193.569 32.0492 193.87 33.4506 194.04 34.8621C194.08 35.2074 193.8 35.837 193.529 35.9385C190.449 37.1064 187.399 37.3602 184.51 35.3496C182.895 34.2325 182.123 32.5874 182.023 30.7087C181.852 27.6318 181.862 24.5446 181.792 21.4677C181.792 21.0818 181.752 20.7061 181.722 20.1577C180.829 20.1577 179.996 20.2186 179.164 20.1272C178.853 20.0968 178.341 19.7413 178.321 19.5179C178.241 18.1267 178.281 16.7253 178.281 15.1614C179.144 15.1614 179.906 15.1208 180.658 15.1716C181.491 15.2224 181.832 14.9482 181.802 14.0444C181.742 12.3688 181.782 10.6932 181.782 8.90594V8.9161Z" fill="#0558D4"/>
<path id="Vector_10" d="M101.168 15.1817C102.773 15.1817 104.278 15.1411 105.773 15.2122C106.024 15.2223 106.425 15.6793 106.455 15.9738C106.545 16.776 106.485 17.5884 106.615 18.5227C109.053 15.2122 111.972 13.4757 116.175 15.0294C115.854 16.837 115.543 18.6039 115.242 20.3608C111.15 19.5585 108.772 20.5131 107.197 23.5393C106.926 24.0673 106.766 24.7173 106.756 25.3062C106.716 28.6269 106.706 31.9476 106.756 35.2683C106.766 36.1518 106.495 36.426 105.632 36.3955C104.178 36.3346 102.713 36.3752 101.178 36.3752V15.1817H101.168Z" fill="#0558D4"/>
<path id="Vector_11" d="M124.301 36.3244H118.794V15.2731H124.301V36.3244Z" fill="#0558D4"/>
<path id="Vector_12" d="M121.492 11.5158C119.546 11.5158 117.991 10.0535 118.011 8.24587C118.031 6.00162 119.416 4.56976 121.552 4.57992C123.519 4.57992 125.003 6.06255 125.003 8.01231C125.003 10.023 123.509 11.5056 121.482 11.5056L121.492 11.5158Z" fill="#0558D4"/>
<path id="Vector_13" d="M37.9895 19.965C37.8792 24.027 37.9494 28.0992 37.9895 32.1713V39.1377H34.0571V25.1847C34.0571 22.8998 34.0571 20.6149 34.0672 18.3199C34.0672 18.2285 34.0672 18.1371 34.0672 18.0457C34.027 17.345 33.8164 16.7865 33.2145 16.2889C28.4996 12.3386 23.8149 8.35786 19.0499 4.32633C17.4148 5.6871 15.7997 7.00725 14.2047 8.35786C11.0447 11.0286 7.87477 13.6994 4.74493 16.4006C4.40385 16.685 4.07281 17.2029 4.07281 17.6192C4.03268 23.2146 4.04272 28.7999 4.05275 34.3953C4.05275 34.5781 4.10291 34.771 4.14303 35.0554C7.43338 35.0554 10.6034 35.0858 13.7733 35.035C14.626 35.0249 14.927 35.2788 15.1376 36.1521C15.3884 37.1879 15.9903 38.1323 16.4317 39.1174C12.1081 39.1174 7.55376 39.1681 3.00947 39.0869C1.09344 39.0564 0.0200631 37.7261 0.0200631 35.7865C0.0200631 29.4599 0.0501578 23.1232 0 16.7865C0 15.5781 0.431357 14.7047 1.3041 13.9634C6.51048 9.58662 11.7068 5.19966 16.9132 0.822855C18.2675 -0.314505 19.8424 -0.253575 21.2067 0.89394C25.9918 4.92547 30.7367 8.99763 35.5819 12.9378C37.3575 14.3798 38.1299 15.9538 38.0497 18.3199C38.0296 18.8683 38.0096 19.4065 37.9995 19.9549L37.9895 19.965Z" fill="#0558D4"/>
<path id="Vector_14" d="M34.0573 18.0454C34.0573 18.1267 34.0573 18.2181 34.0573 18.3196C34.0573 20.6045 34.0471 22.8894 34.0471 25.1844V18.0454H34.0573Z" fill="#0558D4"/>
<path id="Vector_15" d="M37.9906 19.9647V32.171C37.9497 28.0989 37.8782 24.0369 37.9906 19.9647Z" fill="#0558D4"/>
</g>
<defs>
<clipPath id="clip0_4_156">
<rect width="213" height="57" fill="white"/>
</clipPath>
</defs>
</svg>
