<svg width="77" height="24" viewBox="0 0 77 24" fill="none" xmlns="http://www.w3.org/2000/svg">
<g id="afrihuts-04 1" clip-path="url(#clip0_4_172)">
<path id="Vector" d="M1.40947 0H5.36212C6.48816 0 7.48398 0.527472 8.34958 1.58242C8.81685 2.27567 9.05432 2.95385 9.05432 3.63956V5.84741C9.05432 7.29419 8.25 8.47724 6.64903 9.38901C5.73747 10.1501 4.82591 10.5268 3.92201 10.5268H0.0612813L0 10.4666V1.00973C0.0766017 0.904239 0.551532 0.565149 1.40947 0ZM1.44011 0.979592V9.53972H4.68036C5.95195 9.53972 6.67967 9.35887 6.86351 9.00471C7.35376 8.29639 7.59889 7.5956 7.59889 6.88728V4.55133C7.59889 3.42104 7.03203 2.44144 5.89833 1.61256C5.33914 1.19058 4.45822 0.979592 3.26323 0.979592H1.44777H1.44011Z" fill="black"/>
<path id="Vector_2" d="M11.8503 0.286346V1.2358L10.5021 2.18525H10.4408V1.26594C11.0843 0.761072 11.5515 0.437053 11.8503 0.286346ZM11.8503 3.38336V9.54726L10.4714 10.5268L10.4408 10.4967V4.36296C11.3064 3.70738 11.7813 3.38336 11.8503 3.38336Z" fill="black"/>
<path id="Vector_3" d="M16.8907 3.38336H17.2124C18.0933 3.38336 18.7904 3.67724 19.3036 4.26499V4.32528L17.9248 5.24459H17.8635C17.3733 4.65683 16.6609 4.36295 15.711 4.36295C15.0446 4.36295 14.7152 4.44584 14.7152 4.61915L14.6539 4.96578C14.6539 5.79467 15.4582 6.28446 17.0592 6.45024C18.2618 6.65369 18.8593 6.81193 18.8593 6.92496C19.3113 7.14349 19.5334 7.47504 19.5334 7.90455V8.12308C19.5334 8.53752 19.1198 8.98964 18.2772 9.47944C17.4269 10.1727 16.6226 10.5193 15.8719 10.5193H15.5501C14.6692 10.5193 13.9721 10.2254 13.4589 9.63768V9.5774C14.3628 8.96704 14.8454 8.65809 14.9067 8.65809C15.3969 9.24584 16.1093 9.53972 17.0592 9.53972C17.7256 9.53972 18.055 9.45683 18.055 9.29105L18.1163 8.94443C18.1163 8.11554 17.312 7.62575 15.711 7.45997C14.5084 7.25652 13.9109 7.09828 13.9109 6.98525C13.4589 6.76672 13.2368 6.43517 13.2368 6.00565V5.78713C13.2368 5.36515 13.6581 4.91303 14.493 4.43077C15.3433 3.73752 16.1476 3.3909 16.8983 3.3909L16.8907 3.38336Z" fill="black"/>
<path id="Vector_4" d="M24.9798 3.38336H25.2709C25.9909 3.38336 26.6267 3.67724 27.163 4.26499V4.29513L25.8148 5.24458H25.7841C25.1713 4.65683 24.4972 4.36295 23.7618 4.36295C23.2409 4.36295 22.9269 4.47598 22.8273 4.70958C22.4826 5.29733 22.3141 5.88509 22.3141 6.48038C22.3141 7.69356 22.8809 8.62794 24.0146 9.29105C24.4513 9.45683 24.8419 9.53972 25.2019 9.53972C25.7994 9.53972 26.4352 9.25337 27.094 8.68823H27.1553C26.7263 9.09513 25.968 9.63768 24.8726 10.3008C24.4896 10.4515 24.1831 10.5193 23.938 10.5193H23.6469C22.6894 10.5193 21.8928 10.0144 21.2723 9.00471C21.0118 8.52998 20.8893 8.04772 20.8893 7.55039V7.26405C20.8893 6.08854 21.5863 5.10141 22.9805 4.29513C23.7695 3.68477 24.4283 3.37582 24.9721 3.37582L24.9798 3.38336Z" fill="black"/>
<path id="Vector_5" d="M31.8357 3.34567H31.9965C32.8545 3.34567 33.5745 3.87315 34.149 4.92809C34.3635 5.41035 34.4708 5.88508 34.4708 6.35227V6.60093C34.4708 7.90454 33.7354 8.95195 32.257 9.75823C31.6671 10.2631 31.1079 10.5193 30.587 10.5193H30.4262C29.5682 10.5193 28.8482 9.99183 28.2737 8.93688C28.0592 8.45462 27.952 7.9799 27.952 7.51271V7.26404C27.952 5.96043 28.6873 4.91302 30.1657 4.10674C30.7556 3.60187 31.3148 3.34567 31.8357 3.34567ZM29.3921 6.25431V6.41255L29.3614 6.44269L29.3921 6.47283V6.60093C29.3921 7.82165 29.9589 8.7485 31.0926 9.38147C31.3837 9.46435 31.6058 9.50957 31.7667 9.50957H31.8663L31.8969 9.53971C32.3029 9.50957 32.5097 9.42668 32.5097 9.29104C32.8545 8.74096 33.023 8.18335 33.023 7.6182V7.45996L33.0536 7.42982L33.023 7.39968V7.27157C33.023 6.05085 32.4561 5.12401 31.3224 4.49104C31.0313 4.40815 30.8092 4.36294 30.6483 4.36294H30.5487L30.5181 4.3328C30.1121 4.35541 29.9053 4.43829 29.9053 4.589C29.5606 5.13908 29.3921 5.69669 29.3921 6.26184V6.25431Z" fill="black"/>
<path id="Vector_6" d="M36.3781 3.41351C36.4624 3.48133 37.1135 5.08635 38.3391 8.21351H38.4004C39.0209 6.60849 39.5494 5.31241 39.9708 4.32528L41.2883 3.44365H41.3496V3.47379L38.8447 9.60001L37.4965 10.5193C37.4123 10.4666 36.5773 8.41696 34.9916 4.35543L36.3705 3.40598L36.3781 3.41351Z" fill="black"/>
<path id="Vector_7" d="M44.8503 3.38336H45.172C45.8921 3.38336 46.5508 3.85055 47.1637 4.76986C47.4241 5.31994 47.5467 5.83988 47.5467 6.3146V6.4427C47.5237 6.49545 47.0564 6.83454 46.1372 7.45244H42.6059V7.48258C43.0961 8.85401 43.9004 9.53972 45.0111 9.53972C45.4401 9.53972 45.8155 9.38148 46.1372 9.06499L46.7117 8.68823H46.7423V8.71837C46.3364 9.12528 45.6086 9.65275 44.5592 10.3008C44.2681 10.4515 43.9923 10.5193 43.7242 10.5193H43.4025C42.6825 10.5193 42.0237 10.0521 41.4109 9.13281C41.1504 8.58273 41.0279 8.0628 41.0279 7.58807V7.30173C41.0279 5.98305 41.7479 4.94317 43.1804 4.17457C43.8085 3.6471 44.36 3.38336 44.8503 3.38336ZM42.445 6.45024H45.9763V6.4201C45.5014 5.04867 44.6894 4.36295 43.5327 4.36295C43.1804 4.36295 42.9659 4.49105 42.8893 4.73972C42.5905 5.31994 42.4373 5.88509 42.4373 6.4427L42.445 6.45024Z" fill="black"/>
<path id="Vector_8" d="M50.312 3.41351L50.3426 3.44365V4.61163C51.3844 3.85056 52.0202 3.4738 52.273 3.4738C52.273 3.43612 52.4032 3.41351 52.656 3.41351H52.8781C53.2228 3.41351 53.5139 3.4964 53.7437 3.66971C53.6978 3.74507 53.2382 4.06909 52.3649 4.64931C52.0432 4.48353 51.6985 4.3931 51.3384 4.3931C50.9325 4.3931 50.7256 4.52121 50.7256 4.76987C50.4652 5.19185 50.3426 5.69672 50.3426 6.28447L50.3733 6.38243L50.3426 6.7592V9.56987L48.9944 10.5193H48.9332V4.3931L50.312 3.41351Z" fill="black"/>
<path id="Vector_9" d="M35.1065 13.1944C35.1908 13.3451 35.9951 15.9523 37.5118 21.0311H37.5731C38.837 16.54 39.5111 14.2342 39.5954 14.1137L40.9436 13.1944C40.9896 13.1944 41.3419 14.3322 42.0007 16.6079C43.2646 20.6543 43.9157 22.8019 43.9617 23.0506L42.5829 24C42.4986 23.8945 42.0926 22.5909 41.3649 20.0816L40.1469 16.1331H40.1163C38.8064 20.7674 38.1323 23.0807 38.094 23.0807L36.7458 24C36.6386 23.8418 36.2326 22.5382 35.5279 20.0816L34.3099 16.1331H34.2792C32.9694 20.7372 32.2953 23.0581 32.257 23.0807L30.9394 23.9623H30.8781V23.9322L33.7354 14.1363L35.1142 13.1868L35.1065 13.1944Z" fill="black"/>
<path id="Vector_10" d="M49.0097 16.864H49.4617C50.243 16.864 50.9095 17.173 51.4533 17.7834C51.5836 17.9868 51.6448 18.1526 51.6448 18.2882V23.0279L50.266 24.0075L50.2354 23.9774V23.0958C49.4617 23.7061 48.711 24.0151 47.9833 24.0151H47.5313C46.75 24.0151 46.0836 23.7061 45.5397 23.0958C45.4095 22.8923 45.3482 22.7265 45.3482 22.5909V22.3724C45.3482 21.8524 45.7542 21.3702 46.5662 20.918C47.3705 20.2625 48.282 19.8556 49.2932 19.7199C49.9136 19.5918 50.2277 19.5089 50.2277 19.4713V19.4411C50.2277 18.5369 49.4157 18.0094 47.7841 17.8587C47.1407 17.8587 46.8189 17.9416 46.8189 18.1149L45.4401 19.0945H45.4095V19.0644C45.4095 18.7328 46.2214 18.0772 47.8531 17.1052C48.3203 16.9545 48.7033 16.8867 49.0097 16.8867V16.864ZM46.7577 21.5435C46.7577 22.0785 47.2096 22.5155 48.1058 22.8697C48.4582 22.9526 48.8259 23.0053 49.2013 23.0279C49.8677 23.0279 50.1971 22.9224 50.1971 22.7115L50.2277 22.2066V19.8405C49.8447 20.1645 49.2625 20.4132 48.4965 20.6016C47.4011 20.7899 46.8572 20.9331 46.8572 21.0461C46.8113 21.114 46.7806 21.2797 46.7577 21.551V21.5435Z" fill="black"/>
<path id="Vector_11" d="M54.3719 13.1039H54.4331V23.0581L53.085 24.0075H53.0237V14.0534L54.3719 13.1039Z" fill="black"/>
<path id="Vector_12" d="M59.4735 16.864H59.9255C60.7068 16.864 61.3733 17.173 61.9171 17.7834C62.0474 17.9868 62.1086 18.1526 62.1086 18.2882V23.0279L60.7298 24.0075L60.6992 23.9774V23.0958C59.9255 23.7061 59.1748 24.0151 58.4471 24.0151H57.9951C57.2138 24.0151 56.5474 23.7061 56.0035 23.0958C55.8733 22.8923 55.812 22.7265 55.812 22.5909V22.3724C55.812 21.8524 56.218 21.3702 57.0299 20.918C57.8343 20.2625 58.7458 19.8556 59.757 19.7199C60.3774 19.5918 60.6915 19.5089 60.6915 19.4713V19.4411C60.6915 18.5369 59.8795 18.0094 58.2479 17.8587C57.6045 17.8587 57.2827 17.9416 57.2827 18.1149L55.9039 19.0945H55.8733V19.0644C55.8733 18.7328 56.6852 18.0772 58.3169 17.1052C58.7841 16.9545 59.1671 16.8867 59.4735 16.8867V16.864ZM57.2214 21.5435C57.2214 22.0785 57.6734 22.5155 58.5696 22.8697C58.922 22.9526 59.2897 23.0053 59.665 23.0279C60.3315 23.0279 60.6609 22.9224 60.6609 22.7115L60.6915 22.2066V19.8405C60.3085 20.1645 59.7263 20.4132 58.9603 20.6016C57.8649 20.7899 57.321 20.9331 57.321 21.0461C57.2751 21.114 57.2444 21.2797 57.2214 21.551V21.5435Z" fill="black"/>
<path id="Vector_13" d="M64.8663 16.8942C64.9199 16.8942 65.571 18.4917 66.8273 21.6942H66.8886C67.8767 19.1849 68.3976 17.8889 68.4589 17.806L69.8071 16.8867C69.8837 16.9243 70.5348 18.5218 71.7681 21.6867H71.8294C72.5341 19.8706 73.0627 18.5746 73.3997 17.7984L74.7173 16.9168H74.7786V16.9469L72.2737 23.0732L70.9255 23.9925C70.8412 23.9322 70.1901 22.3272 68.9645 19.1925H68.9032C68.2827 20.7975 67.7542 22.0936 67.3329 23.0807L65.954 24C64.6059 20.7221 63.7786 18.6725 63.4798 17.8361L64.8586 16.8867L64.8663 16.8942Z" fill="black"/>
<path id="Vector_14" d="M77 13.767V14.7165L75.6518 15.6659H75.5905V14.7466C76.234 14.2418 76.7013 13.9177 77 13.767ZM77 16.864V23.0279L75.6212 24.0075L75.5905 23.9774V17.8512C76.4561 17.1956 76.9311 16.8716 77 16.8716V16.864Z" fill="black"/>
</g>
<defs>
<clipPath id="clip0_4_172">
<rect width="77" height="24" fill="white"/>
</clipPath>
</defs>
</svg>
