<svg width="432" height="520" viewBox="0 0 432 520" fill="none" xmlns="http://www.w3.org/2000/svg">
<path opacity="0.02" d="M104.092 255.722V150.556L216.01 86.137C253.356 107.61 290.621 129.083 327.927 150.556V313.418H127.219H23.2281C19.4281 304.78 15.5463 296.264 12.4 287.422C-0.512039 251.117 -3.33144 212.083 3.90093 174.556C11.7462 133.647 31.5637 94.6529 63.2717 63.0748C105.481 21.0249 160.766 0 216.01 0C271.335 0 326.62 21.0249 368.747 63.0748C410.916 105.165 432 160.295 432 215.383C432 270.512 410.916 325.683 368.747 367.692L216.01 520L63.2717 367.732C56.8157 361.294 50.6866 354.368 45.0887 347.156H90.4033L216.01 472.449L344.926 343.896C380.474 308.447 398.29 261.874 398.29 215.383C398.29 168.892 380.474 122.36 344.926 86.8704C309.336 51.3399 262.632 33.6154 216.01 33.6154C169.387 33.6154 122.724 51.3807 87.1345 86.8297C60.3298 113.559 43.6585 146.4 37.0391 180.79C30.6648 213.713 33.5251 247.98 45.4973 279.68H294.176V169.87C268.066 154.835 242.038 139.84 216.01 124.846L137.884 169.87V255.803H104.092V255.722Z" fill="white"/>
</svg>
