<svg width="13" height="13" viewBox="0 0 13 13" fill="none" xmlns="http://www.w3.org/2000/svg">
<g clip-path="url(#clip0)">
<path d="M12.7922 5.99473L8.09744 1.29986C7.96343 1.16585 7.78481 1.09229 7.59436 1.09229C7.4037 1.09229 7.22518 1.16595 7.09117 1.29986L6.66492 1.72621C6.53101 1.86002 6.45724 2.03874 6.45724 2.2293C6.45724 2.41975 6.53101 2.6045 6.66492 2.7383L9.40377 5.48318L0.70231 5.48318C0.309989 5.48318 0 5.79032 0 6.18275L0 6.7855C0 7.17793 0.309989 7.51603 0.70231 7.51603L9.43485 7.51603L6.66503 10.2762C6.53112 10.4103 6.45735 10.5841 6.45735 10.7747C6.45735 10.965 6.53112 11.1414 6.66503 11.2753L7.09127 11.7003C7.22529 11.8343 7.4038 11.9074 7.59447 11.9074C7.78492 11.9074 7.96353 11.8334 8.09755 11.6994L12.7923 7.00459C12.9266 6.87016 13.0005 6.6907 13 6.49993C13.0004 6.30852 12.9266 6.12895 12.7922 5.99473Z" fill="#717171"/>
</g>
<defs>
<clipPath id="clip0">
<rect width="13" height="13" fill="white"/>
</clipPath>
</defs>
</svg>
