<svg width="1920" height="605" viewBox="0 0 1920 605" fill="none" xmlns="http://www.w3.org/2000/svg">
<rect width="1920" height="605" fill="#0061DF"/>
<circle opacity="0.1" cx="1125.5" cy="204.5" r="63.5" fill="white"/>
<circle opacity="0.1" cx="765.5" cy="350.5" r="23.5" fill="white"/>
<circle opacity="0.1" r="12.5" transform="matrix(1 0 0 -1 432.5 442.5)" fill="white"/>
<circle opacity="0.1" r="12.5" transform="matrix(1 0 0 -1 540.5 132.5)" fill="white"/>
<circle opacity="0.1" r="18.5" transform="matrix(1 0 0 -1 1525.5 402.5)" fill="white"/>
<circle opacity="0.1" r="33" transform="matrix(1 0 0 -1 1820 95)" fill="white"/>
<path opacity="0.02" d="M154.092 298.722V193.556L266.01 129.137C303.356 150.61 340.621 172.083 377.927 193.556V356.418H177.219H73.2281C69.4281 347.78 65.5463 339.264 62.4 330.422C49.488 294.117 46.6686 255.083 53.9009 217.556C61.7462 176.647 81.5637 137.653 113.272 106.075C155.481 64.0249 210.766 43 266.01 43C321.335 43 376.62 64.0249 418.747 106.075C460.916 148.165 482 203.295 482 258.383C482 313.512 460.916 368.683 418.747 410.692L266.01 563L113.272 410.732C106.816 404.294 100.687 397.368 95.0887 390.156H140.403L266.01 515.449L394.926 386.896C430.474 351.447 448.29 304.874 448.29 258.383C448.29 211.892 430.474 165.36 394.926 129.87C359.336 94.3399 312.632 76.6154 266.01 76.6154C219.387 76.6154 172.724 94.3807 137.134 129.83C110.33 156.559 93.6585 189.4 87.0391 223.79C80.6648 256.713 83.5251 290.98 95.4973 322.68H344.176V212.87C318.066 197.835 292.038 182.84 266.01 167.846L187.884 212.87V298.803H154.092V298.722Z" fill="white"/>
</svg>
